<svg width="24" height="24" viewBox="0 0 24 24" fill="none" xmlns="http://www.w3.org/2000/svg">
<g id="Deposit">
<g id="Group">
<path id="Vector" d="M4.26562 2.09011C3.43594 2.30573 2.69531 2.91042 2.32031 3.67917C1.99219 4.34011 2.01094 3.77292 2.025 12.1214L2.03906 19.6635L2.16094 19.9776C2.50781 20.8682 3.13125 21.4917 4.02187 21.8385L4.33594 21.9604H7.45312C10.5422 21.9604 10.575 21.9604 10.8984 21.8573C11.7797 21.576 12.4828 20.8964 12.8391 19.9776L12.9609 19.6635L12.975 17.0432L12.9891 14.4229L13.6781 15.1073C14.1328 15.5573 14.4422 15.8245 14.5781 15.8854C15.4359 16.2745 16.2891 15.3932 15.8672 14.5495C15.7172 14.2448 12.675 11.1979 12.4125 11.0854C12.1687 10.987 11.7891 10.9964 11.5594 11.1089C11.2687 11.2495 8.23594 14.301 8.11406 14.5776C7.73437 15.4214 8.58281 16.2698 9.42187 15.8854C9.55781 15.8245 9.86719 15.5573 10.3219 15.1026L11.0156 14.4182V16.7292C11.0156 18.3417 10.9969 19.101 10.9594 19.2557C10.8844 19.5557 10.5562 19.8839 10.2562 19.9589C9.94687 20.0385 5.05312 20.0385 4.74375 19.9589C4.44375 19.8839 4.11562 19.5557 4.04062 19.2557C3.975 19.0073 3.95625 7.82761 4.02187 7.82761C4.04062 7.82761 4.1625 7.86511 4.28906 7.91198C4.50937 7.98698 5.05781 7.99167 12.2719 8.00573L20.0156 8.0198L20.0063 14.0057L19.9922 19.9917L17.8359 20.0151C15.4781 20.0385 15.5531 20.0292 15.2719 20.3292C14.8125 20.812 14.9578 21.5807 15.5766 21.8948C15.7453 21.9839 15.8625 21.9839 18.5531 21.9745L21.3609 21.9604L21.5437 21.8339C21.6422 21.7635 21.7781 21.6276 21.8437 21.5292L21.9609 21.3557L21.975 14.0526C21.9844 6.9323 21.9844 6.7448 21.8953 6.57136C21.7781 6.34636 21.5859 6.16355 21.3656 6.07448C21.2109 6.00886 20.2969 5.99948 12.9937 5.99948H4.8L4.55156 5.87761C3.9375 5.56823 3.81562 4.74323 4.31719 4.29323C4.42031 4.19948 4.56094 4.09636 4.63125 4.06355C4.72969 4.02136 6.72656 4.00261 13.0594 3.98386L21.3562 3.96042L21.5297 3.84324C21.6281 3.77761 21.7641 3.64167 21.8344 3.54323C21.9469 3.37917 21.9609 3.31355 21.9609 2.99949C21.9609 2.68542 21.9469 2.6198 21.8344 2.45573C21.7641 2.3573 21.6281 2.22136 21.5297 2.15574L21.3562 2.03855L12.9422 2.02917C5.72344 2.02448 4.48594 2.02917 4.26562 2.09011Z" fill="#BDBDBD"/>
</g>
</g>
</svg>
