<svg width="24" height="24" viewBox="0 0 24 24" fill="none" xmlns="http://www.w3.org/2000/svg">
<g id="Transfer">
<g id="Group">
<path id="Vector" d="M16.8281 2.6291C16.6781 2.69004 16.4672 2.89161 16.3687 3.06973C16.2984 3.1916 16.2891 3.41192 16.275 4.60254L16.2609 5.99942L13.1297 6.00879L10.0031 6.02286L9.83438 6.13536C9.17813 6.58536 9.36094 7.52286 10.1391 7.68692C10.3172 7.71973 11.4375 7.73379 13.8797 7.72442C17.6859 7.71036 17.4937 7.72442 17.7516 7.44317C17.9625 7.21817 18 7.03536 18 6.24786V5.50723L19.9547 7.46661L21.9141 9.42129L19.9547 11.376L18 13.3354V12.5947C18 11.6525 17.9297 11.451 17.5219 11.2447C17.3531 11.1604 17.1656 11.1557 12.5437 11.1557H7.73906L7.725 9.75879C7.71094 8.41817 7.70625 8.35723 7.60781 8.16973C7.41094 7.80879 6.92813 7.63536 6.52969 7.78067C6.33281 7.85567 0.201563 13.9916 0.0890633 14.226C-0.0234367 14.465 -0.0234367 14.69 0.0890633 14.9291C0.150001 15.0557 1.16719 16.1057 3.28594 18.215C6.63281 21.5525 6.525 21.4588 6.97031 21.4072C7.20938 21.3838 7.47188 21.1963 7.61719 20.9479C7.70625 20.7979 7.71094 20.69 7.725 19.3963L7.74375 17.9994L10.8703 17.99L13.9969 17.976L14.1656 17.8635C14.8219 17.4135 14.6391 16.476 13.8609 16.3119C13.6828 16.2791 12.5625 16.265 10.1203 16.2744C6.31875 16.2885 6.50156 16.2744 6.25313 16.5557C6.04219 16.7807 6.02344 16.8744 6 17.6854L5.97656 18.4682L4.01719 16.5135L2.0625 14.5541L4.03125 12.5854L6 10.6166V11.3807C6 12.351 6.06563 12.5432 6.47813 12.7541C6.64688 12.8385 6.83438 12.8432 11.4563 12.8432H16.2609L16.275 14.2354C16.2891 15.5807 16.2937 15.6416 16.3922 15.8291C16.5891 16.19 17.0719 16.3635 17.4703 16.2182C17.6672 16.1432 23.7984 10.0072 23.9109 9.77286C24.0187 9.54317 24.0234 9.33223 23.9297 9.10254C23.8266 8.86348 17.775 2.79317 17.5078 2.6666C17.3062 2.57285 17.0156 2.55411 16.8281 2.6291Z" fill="#BDBDBD"/>
</g>
</g>
</svg>
